HIERARCHY
ROOT Hips
{
	OFFSET 0.000000 0.000000 0.000000 
	CHANNELS 6 Xposition Yposition Zposition Yrotation Zrotation Xrotation 
	JOINT Lumbar
	{
		OFFSET 0.000000 0.000000 0.000000 
		CHANNELS 3 Zrotation Xrotation Yrotation
		JOINT Neck
		{
			OFFSET 0.000000 0.445665 0.000000 
			CHANNELS 3 Zrotation Xrotation Yrotation
			End Site
			{
				OFFSET 0.000000 0.227535 0.000000 
			}
		}
		JOINT RightShoulder
		{
			OFFSET 0.019635 0.377685 0.194865 
			CHANNELS 3 Zrotation Xrotation Yrotation
			JOINT RightElbow
			{
				OFFSET 0.000000 -0.243375 0.000000 
				CHANNELS 2 Zrotation Yrotation
				JOINT RightWrist
				{
					OFFSET 0.000000 -0.264825 0.000000 
					CHANNELS 2 Zrotation Xrotation
					End Site
					{
						OFFSET 0.006600 -0.176220 0.000990 
					}
				}
			}
		}
		JOINT LeftShoulder
		{
			OFFSET 0.019635 0.377685 -0.194865 
			CHANNELS 3 Zrotation Xrotation Yrotation
			JOINT LeftElbow
			{
				OFFSET 0.000000 -0.243375 0.000000 
				CHANNELS 2 Zrotation Yrotation
				JOINT LeftWrist
				{
					OFFSET 0.000000 -0.264825 0.000000 
					CHANNELS 2 Zrotation Xrotation
					End Site
					{
						OFFSET 0.006600 -0.176220 -0.000990 
					}
				}
			}
		}
	}
	JOINT RightHip
	{
		OFFSET 0.052140 -0.069960 0.075570 
		CHANNELS 3 Zrotation Xrotation Yrotation
		JOINT RightKnee
		{
			OFFSET 0.000000 -0.402270 0.000000 
			CHANNELS 1 Zrotation
			JOINT RightAnkle
			{
				OFFSET 0.000000 -0.404085 0.000000 
				CHANNELS 3 Zrotation Xrotation Yrotation
				End Site
				{
					OFFSET 0.204105 -0.089430 0.008415 
				}
			}
		}
	}
	JOINT LeftHip
	{
		OFFSET 0.052140 -0.069960 -0.075570 
		CHANNELS 3 Zrotation Xrotation Yrotation
		JOINT LeftKnee
		{
			OFFSET 0.000000 -0.402270 0.000000 
			CHANNELS 1 Zrotation
			JOINT LeftAnkle
			{
				OFFSET 0.000000 -0.404085 0.000000 
				CHANNELS 3 Zrotation Xrotation Yrotation
				End Site
				{
					OFFSET 0.204105 -0.089430 -0.008415 
				}
			}
		}
	}
}
MOTION
Frames: 19
Frame Time: 0.02
0.00039 5e-05 -0.0001 27.01698 -30.88747 -7.01189 49.60666 1.60979 -7.28226 3.16956 -0.76899 -0.36493 -21.02423 -12.28666 0.22437 34.60154 93.87064 6.19699 1.08127 -21.25794 21.44603 -15.06262 45.85645 -108.76095 16.07804 -1.68208 44.89563 0.04719 -11.81369 -19.21645 -6.16855 -2.91345 -2.10769 47.45847 0.92235 -1.27608 -25.14476 -6.5857 3.95599 2.75632
0.00057 8e-05 -0.00023 26.91198 -30.87456 -7.00705 49.66009 1.61727 -7.25181 3.1476 -0.69468 -0.36565 -20.92573 -11.93353 0.50594 34.71215 93.67239 6.16013 1.04321 -21.37191 20.84433 -15.11345 46.1686 -108.33016 15.82173 -1.65944 44.89258 0.10956 -11.47063 -19.2148 -6.17246 -2.93792 -2.12436 47.42491 1.01647 -0.87381 -25.13727 -6.5755 3.93085 2.73589
0.00075 0.00011 -0.00035 26.80737 -30.86167 -7.00226 49.71333 1.62468 -7.22161 3.12575 -0.62053 -0.36637 -20.82745 -11.58126 0.78679 34.82244 93.47485 6.12346 1.00526 -21.48533 20.24403 -15.16526 46.48014 -107.90064 15.56636 -1.63681 44.88949 0.17176 -11.12857 -19.21316 -6.17636 -2.96234 -2.141 47.39142 1.11043 -0.47225 -25.1298 -6.56531 3.90571 2.71548
0.00092 0.00014 -0.00048 26.7027 -30.84881 -6.99744 49.7666 1.63213 -7.19128 3.10387 -0.54643 -0.36708 -20.72924 -11.22917 1.06752 34.93272 93.27722 6.08673 0.96732 -21.59892 19.64408 -15.21613 46.79138 -107.47116 15.31087 -1.61423 44.88644 0.23394 -10.78655 -19.21152 -6.18026 -2.98674 -2.15763 47.35796 1.20428 -0.07111 -25.12234 -6.55513 3.88063 2.6951
0.0011 0.00017 -0.00061 26.59759 -30.83594 -6.99258 49.82006 1.63966 -7.16065 3.08185 -0.47222 -0.3678 -20.63084 -10.87633 1.34889 35.04331 93.07887 6.04977 0.92928 -21.71313 19.04299 -15.26556 47.10311 -107.04046 15.05435 -1.59167 44.88344 0.29627 -10.44357 -19.20988 -6.18417 -3.01118 -2.17429 47.32445 1.29824 0.33046 -25.11486 -6.54495 3.85559 2.67473
0.00127 0.0002 -0.00073 26.49406 -30.823 -6.98793 49.87285 1.64682 -7.13134 3.06034 -0.39819 -0.36851 -20.53285 -10.52531 1.62863 35.15297 92.88305 6.01372 0.89152 -21.8249 18.44441 -15.32231 47.41424 -106.61344 14.80142 -1.56891 44.88019 0.35819 -10.10345 -19.20824 -6.18803 -3.03555 -2.19087 47.291 1.3922 0.73196 -25.1074 -6.53472 3.83025 2.65425
0.00145 0.00023 -0.00086 26.38749 -30.81022 -6.98285 49.92693 1.65472 -7.09943 3.03786 -0.32388 -0.36923 -20.43411 -10.17092 1.91138 35.26439 92.68232 5.97589 0.85323 -21.94146 17.84128 -15.36444 47.7262 -106.17947 14.54158 -1.54657 44.87744 0.42086 -9.75797 -19.20659 -6.192 -3.06003 -2.2076 47.25747 1.48607 1.13329 -25.09992 -6.52461 3.80552 2.63399
0.00162 0.00026 -0.00099 26.28367 -30.79729 -6.97816 49.97983 1.66194 -7.06985 3.01623 -0.24982 -0.36994 -20.33611 -9.81985 2.1913 35.37416 92.48616 5.93971 0.81544 -22.05359 17.24261 -15.41975 48.03745 -105.75193 14.28807 -1.52386 44.87424 0.48286 -9.41739 -19.20495 -6.19587 -3.08441 -2.22419 47.22402 1.57998 1.53455 -25.09246 -6.51439 3.78027 2.61355
0.00179 0.00029 -0.00111 26.18338 -30.78417 -6.97399 50.03126 1.6683 -7.04341 2.99582 -0.17605 -0.37065 -20.23878 -9.4718 2.46808 35.48207 92.29536 5.90549 0.77821 -22.16036 16.64802 -15.49257 48.34782 -105.33196 14.04239 -1.50057 44.87044 0.544 -9.0828 -19.20332 -6.1996 -3.10869 -2.24063 47.1906 1.67418 1.93691 -25.08502 -6.50402 3.7542 2.59277
0.00199 0.00033 -0.00124 26.06328 -30.77211 -6.96695 50.09106 1.67953 -6.99978 2.96893 -0.10054 -0.37138 -20.1369 -9.10322 2.7639 35.60116 92.07304 5.85982 0.7376 -22.29813 16.02581 -15.46885 48.66322 -104.86756 13.75193 -1.48026 44.86992 0.60997 -8.71374 -19.20163 -6.20409 -3.1336 -2.25801 47.15683 1.76744 2.33651 -25.07743 -6.49444 3.73229 2.5736
0.00213 0.00035 -0.00135 25.98467 -30.75784 -6.9659 50.13326 1.68056 -6.99186 2.95538 -0.02876 -0.37207 -20.04505 -8.78002 3.01892 35.69632 91.91766 5.83841 0.70424 -22.37041 15.4646 -15.64601 48.96797 -104.49748 13.55578 -1.45391 44.8626 0.66579 -8.41743 -19.20008 -6.20698 -3.15714 -2.27336 47.12391 1.86219 2.73955 -25.07019 -6.48329 3.70194 2.55125
0.00211 0.00034 -0.0014 26.02356 -30.7373 -6.98178 50.12615 1.65262 -7.08743 2.98114 0.03331 -0.37264 -19.97765 -8.56559 3.16628 35.72833 91.94492 5.88342 0.69003 -22.26177 15.05005 -16.40297 49.24321 -104.38421 13.62246 -1.40868 44.83527 0.69334 -8.32238 -19.19861 -6.20539 -3.17741 -2.28328 47.09233 1.96514 3.17216 -25.06367 -6.46706 3.64549 2.51839
0.00203 0.00032 -0.00142 26.10345 -30.71455 -7.00356 50.10152 1.6146 -7.21783 3.01966 0.0916 -0.37317 -19.92095 -8.39964 3.27202 35.73597 92.04001 5.95291 0.68329 -22.08762 14.70079 -17.35603 49.50739 -104.36614 13.78319 -1.3578 44.80132 0.71077 -8.30009 -19.19734 -6.20222 -3.1962 -2.29113 47.06176 2.06882 3.60458 -25.05757 -6.44941 3.58108 2.48265
0.00197 0.0003 -0.00145 26.1622 -30.69298 -7.02234 50.08558 1.58189 -7.32874 3.0507 0.1512 -0.37371 -19.8613 -8.22185 3.39383 35.75301 92.10424 6.01117 0.67353 -21.9442 14.33491 -18.20114 49.77741 -104.30564 13.89815 -1.31105 44.77128 0.73313 -8.24337 -19.19615 -6.19983 -3.21534 -2.29981 47.03141 2.16944 4.02383 -25.05144 -6.43293 3.52221 2.44938
0.00191 0.00028 -0.00151 26.23158 -30.67076 -7.04253 50.06662 1.54621 -7.45524 3.08932 0.21228 -0.37426 -19.79339 -8.00119 3.52702 35.77663 92.16711 6.0695 0.66194 -21.79645 13.91322 -19.12752 50.04579 -104.2413 14.02572 -1.25777 44.73751 0.75411 -8.19245 -19.1942 -6.19714 -3.23585 -2.30894 46.9983 2.28156 4.49873 -25.04461 -6.41425 3.45523 2.41124
0.00186 0.00026 -0.0015 26.28855 -30.64924 -7.06109 50.04971 1.51417 -7.55742 3.11463 0.26969 -0.37478 -19.74549 -7.88122 3.62731 35.78132 92.25095 6.13401 0.65625 -21.64236 13.6243 -19.92936 50.31267 -104.20818 14.14977 -1.21666 44.70983 0.77552 -8.14683 -19.19391 -6.19472 -3.25316 -2.31665 46.97105 2.36994 4.85806 -25.03937 -6.3998 3.40323 2.38253
0.00182 0.00025 -0.00133 26.30115 -30.63135 -7.07438 50.04353 1.49596 -7.58499 3.10431 0.31548 -0.37519 -19.74801 -8.02769 3.63949 35.73532 92.36728 6.20735 0.66383 -21.48609 13.67651 -20.35271 50.59755 -104.23261 14.23707 -1.21136 44.70144 0.80105 -8.09711 -19.19788 -6.1934 -3.26196 -2.32092 46.96062 2.39204 4.89459 -25.0382 -6.39755 3.39489 2.38087
0.00179 0.00025 -0.00109 26.29988 -30.61398 -7.0857 50.0399 1.48145 -7.58689 3.07909 0.35842 -0.37557 -19.77082 -8.2733 3.62014 35.67217 92.51018 6.28808 0.67828 -21.32616 13.86157 -20.64082 50.87758 -104.28659 14.3184 -1.21843 44.69917 0.82727 -8.05062 -19.20354 -6.19241 -3.26758 -2.32382 46.95581 2.3903 4.81535 -25.03867 -6.39959 3.40184 2.38875
0.00175 0.00024 -0.00088 26.30496 -30.59568 -7.09743 50.03458 1.46447 -7.5996 3.05822 0.40395 -0.37599 -19.78563 -8.47392 3.62176 35.61941 92.63884 6.36486 0.68911 -21.16802 13.99238 -20.98274 51.14718 -104.32997 14.40495 -1.21922 44.69361 0.85291 -8.00298 -19.20863 -6.19129 -3.27468 -2.32739 46.94788 2.39986 4.79178 -25.03858 -6.39955 3.40156 2.39203
